<?xml version="1.0" encoding="utf-8"?>
<!-- Generator: Adobe Illustrator 24.0.0, SVG Export Plug-In . SVG Version: 6.00 Build 0)  -->
<svg version="1.1" id="Capa_1" xmlns="http://www.w3.org/2000/svg" xmlns:xlink="http://www.w3.org/1999/xlink" x="0px" y="0px"
	 viewBox="0 0 304.52 76.9" style="enable-background:new 0 0 304.52 76.9;" xml:space="preserve">
<style type="text/css">
	.st0{fill:#616160;}
	.st1{fill:#2A80C3;}
</style>
<g>
	<g>
		<path class="st0" d="M60.28,26.33c3.35,0,6.42,1.71,7.9,4.17V19.2h3.58v28.8h-3.58V44c-1.28,2.37-4.05,4.36-7.94,4.36
			c-5.72,0-10.12-4.48-10.12-11.09C50.12,30.61,54.52,26.33,60.28,26.33z M60.94,29.4c-3.89,0-7.2,2.84-7.2,7.86s3.31,7.98,7.2,7.98
			s7.24-2.92,7.24-7.94C68.18,32.36,64.83,29.4,60.94,29.4z"/>
		<path class="st0" d="M77.17,20.8c0-1.36,1.05-2.41,2.41-2.41c1.28,0,2.34,1.05,2.34,2.41s-1.05,2.41-2.34,2.41
			C78.23,23.21,77.17,22.16,77.17,20.8z M77.76,26.68h3.54v21.33h-3.54V26.68z"/>
		<path class="st0" d="M96.13,26.33c3.89,0,6.7,1.95,7.94,4.24v-3.89h3.58v21.8c0,5.88-3.93,10.04-10.2,10.04
			c-5.61,0-9.61-2.84-10.32-7.4h3.5c0.78,2.57,3.31,4.32,6.81,4.32c3.78,0,6.62-2.41,6.62-6.97V44c-1.28,2.3-4.05,4.36-7.94,4.36
			c-5.72,0-10.12-4.48-10.12-11.09C86.01,30.61,90.41,26.33,96.13,26.33z M96.83,29.4c-3.89,0-7.2,2.84-7.2,7.86s3.31,7.98,7.2,7.98
			s7.24-2.92,7.24-7.94C104.07,32.36,100.72,29.4,96.83,29.4z"/>
		<path class="st0" d="M113.07,20.8c0-1.36,1.05-2.41,2.41-2.41c1.28,0,2.34,1.05,2.34,2.41s-1.05,2.41-2.34,2.41
			C114.12,23.21,113.07,22.16,113.07,20.8z M113.65,26.68h3.54v21.33h-3.54V26.68z"/>
		<path class="st0" d="M124.01,29.6h-2.76v-2.92h2.76v-5.37h3.54v5.37h5.57v2.92h-5.57v12.57c0,2.1,0.78,2.84,2.96,2.84h2.61v3
			h-3.19c-3.78,0-5.92-1.56-5.92-5.84V29.6z"/>
		<path class="st0" d="M146.19,26.33c3.97,0,6.7,2.02,7.94,4.24v-3.89h3.58v21.33h-3.58v-3.97c-1.28,2.3-4.05,4.32-7.98,4.32
			c-5.68,0-10.08-4.48-10.08-11.09C136.07,30.61,140.47,26.33,146.19,26.33z M146.89,29.4c-3.89,0-7.2,2.84-7.2,7.86
			s3.31,7.98,7.2,7.98s7.24-2.92,7.24-7.94C154.13,32.36,150.79,29.4,146.89,29.4z"/>
		<path class="st0" d="M163.71,19.2h3.54v28.8h-3.54V19.2z"/>
		<path class="st0" d="M190.49,48.36c-5.41,0-9.19-3.15-9.42-7.16h5.49c0.19,1.64,1.71,2.88,3.89,2.88c2.14,0,3.31-0.97,3.31-2.22
			c0-3.85-12.18-1.4-12.18-9.3c0-3.58,3.19-6.46,8.52-6.46c5.22,0,8.37,2.84,8.68,7.12h-5.22c-0.16-1.67-1.48-2.8-3.62-2.8
			c-2.02,0-3.07,0.82-3.07,2.06c0,3.93,11.95,1.48,12.11,9.38C198.98,45.56,195.75,48.36,190.49,48.36z"/>
		<path class="st0" d="M216.03,26.09c5.53,0,9.85,4.32,9.85,11.05c0,6.73-4.32,11.21-9.85,11.21c-3.39,0-5.8-1.67-7.12-3.43v13.35
			h-5.45V26.44h5.45v3.11C210.19,27.73,212.68,26.09,216.03,26.09z M214.59,30.88c-2.92,0-5.68,2.26-5.68,6.35
			c0,4.09,2.76,6.34,5.68,6.34c2.96,0,5.72-2.34,5.72-6.42C220.31,33.06,217.55,30.88,214.59,30.88z"/>
		<path class="st0" d="M239.43,48.36c-6.23,0-10.94-4.36-10.94-11.13c0-6.81,4.87-11.13,11.09-11.13s11.09,4.32,11.09,11.13
			C250.68,44,245.69,48.36,239.43,48.36z M239.43,43.61c2.88,0,5.64-2.1,5.64-6.38c0-4.32-2.69-6.38-5.57-6.38
			c-2.88,0-5.49,2.06-5.49,6.38C234.02,41.51,236.51,43.61,239.43,43.61z"/>
		<path class="st0" d="M260.14,48.01h-5.45V26.44h5.45v3.35c1.36-2.22,3.62-3.66,6.62-3.66v5.72h-1.44c-3.23,0-5.18,1.25-5.18,5.41
			V48.01z"/>
		<path class="st0" d="M271.27,30.92h-2.57v-4.48h2.57v-5.33h5.49v5.33h4.83v4.48h-4.83v10.43c0,1.44,0.58,2.06,2.3,2.06h2.53v4.59
			h-3.43c-4.13,0-6.89-1.75-6.89-6.7V30.92z"/>
		<path class="st0" d="M293.77,48.36c-5.41,0-9.19-3.15-9.42-7.16h5.49c0.19,1.64,1.71,2.88,3.89,2.88c2.14,0,3.31-0.97,3.31-2.22
			c0-3.85-12.18-1.4-12.18-9.3c0-3.58,3.19-6.46,8.52-6.46c5.22,0,8.37,2.84,8.68,7.12h-5.22c-0.16-1.67-1.48-2.8-3.62-2.8
			c-2.02,0-3.07,0.82-3.07,2.06c0,3.93,11.95,1.48,12.11,9.38C302.26,45.56,299.03,48.36,293.77,48.36z"/>
	</g>
	<g>
		<path class="st1" d="M39.4,38.46c0,19.41-14.92,35.35-33.92,36.99c-1.74,0.15-3.23-1.26-3.23-3v-68c0-1.75,1.49-3.15,3.23-3
			C24.48,3.09,39.4,19.03,39.4,38.46z"/>
	</g>
</g>
</svg>
